<?xml version="1.0" standalone="no"?><!DOCTYPE svg PUBLIC "-//W3C//DTD SVG 1.1//EN" "http://www.w3.org/Graphics/SVG/1.1/DTD/svg11.dtd"><svg class="icon" width="16px" height="16.00px" viewBox="0 0 1024 1024" version="1.1" xmlns="http://www.w3.org/2000/svg"><path fill="#8590A6" d="M978.488889 471.04c20.48-22.755556 29.582222-54.613333 18.204444-84.195556-9.102222-29.582222-34.133333-50.062222-61.44-52.337777l-220.728889-34.133334c-9.102222-2.275556-15.928889-6.826667-20.48-15.928889l-100.124444-209.351111c-13.653333-27.306667-40.96-45.511111-70.542222-45.511111s-56.888889 15.928889-70.542222 45.511111l-97.848889 209.351111c-4.551111 9.102222-11.377778 15.928889-20.48 15.928889L113.777778 334.506667c-29.582222 4.551111-52.337778 25.031111-61.44 52.337777-9.102222 29.582222-2.275556 61.44 18.204444 84.195556l161.564445 163.84c6.826667 6.826667 9.102222 15.928889 6.826666 27.306667L200.248889 892.017778c-4.551111 31.857778 6.826667 61.44 34.133333 79.644444 25.031111 15.928889 54.613333 18.204444 81.92 4.551111l197.973334-109.226666c6.826667-4.551111 15.928889-4.551111 22.755555 0l197.973333 109.226666c11.377778 6.826667 25.031111 9.102222 36.408889 9.102223 15.928889 0 31.857778-4.551111 45.511111-13.653334 25.031111-18.204444 38.684444-47.786667 31.857778-79.644444L810.097778 659.911111c-2.275556-9.102222 2.275556-20.48 9.102222-27.306667l159.288889-161.564444z"  /></svg>