<?xml version="1.0" standalone="no"?><!DOCTYPE svg PUBLIC "-//W3C//DTD SVG 1.1//EN" "http://www.w3.org/Graphics/SVG/1.1/DTD/svg11.dtd"><svg class="icon" width="16px" height="16.00px" viewBox="0 0 1024 1024" version="1.1" xmlns="http://www.w3.org/2000/svg"><path fill="#8590A6" d="M760.441856 391.463936c-1.475584 103.02976-43.326464 146.861056-43.326464 146.861056C713.179136 308.850688 486.647808 62.859264 486.647808 62.859264c74.848256 152.367104-256.079872 343.922688-256.079872 618.653696 0 172.332032 212.569088 298.921984 319.108096 277.198848C1010.117632 864.863232 760.441856 391.463936 760.441856 391.463936zM529.293312 889.64608c0 0-238.64832-117.425152-6.70208-377.644032 0 0 115.234816 116.732928 93.07136 225.501184 0 0 32.497664 3.443712 73.868288-55.762944C689.529856 681.740288 699.190272 846.964736 529.293312 889.64608z" /></svg>