<?xml version="1.0" standalone="no"?><!DOCTYPE svg PUBLIC "-//W3C//DTD SVG 1.1//EN" "http://www.w3.org/Graphics/SVG/1.1/DTD/svg11.dtd"><svg t="1550461581175" class="icon" style="" viewBox="0 0 1024 1024" version="1.1" xmlns="http://www.w3.org/2000/svg" p-id="2944" xmlns:xlink="http://www.w3.org/1999/xlink" width="16" height="16"><defs><style type="text/css"></style></defs><path d="M881.812627 615.786785c0-57.735959-23.62814-110.396319-62.461587-150.275585-5.763261 166.972872-154.398486 300.703643-336.937892 300.703643-9.951653 0-19.794835-0.420579-29.52443-1.199315 44.922119 46.706765 110.583584 76.166727 183.733605 76.166727 20.909216 0 41.199331-2.410909 60.576657-6.934946l85.857437 42.87653c31.994692 15.978926 25.007557-17.183358 24.984021-17.290805l-15.591093-70.01461C847.01817 748.474806 881.812627 685.868933 881.812627 615.786785L881.812627 615.786785zM773.827217 433.985182c0-159.496597-140.645251-288.790312-314.14784-288.790312-173.499519 0-314.14784 129.293715-314.14784 288.790312 0 89.792049 44.581358 170.010045 114.502847 222.977397l-19.9821 89.707115c-0.028653 0.13917-8.980535 42.626843 32.014134 22.155603l110.002346-54.94131c24.823362 5.8001 50.821479 8.891508 77.610612 8.891508C633.177873 722.776518 773.827217 593.481779 773.827217 433.985182L773.827217 433.985182zM773.827217 433.985182" p-id="2945" fill="#8590A6"></path></svg>