<?xml version="1.0" standalone="no"?><!DOCTYPE svg PUBLIC "-//W3C//DTD SVG 1.1//EN" "http://www.w3.org/Graphics/SVG/1.1/DTD/svg11.dtd"><svg class="icon" width="16px" height="15.98px" viewBox="0 0 1025 1024" version="1.1" xmlns="http://www.w3.org/2000/svg"><path fill="#8590A6" d="M801.967543 761.504914c-134.407314-49.034971-177.269029-90.360686-177.269029-178.614857 0-52.867657 40.96-35.781486 59.070171-132.871314 7.358171-40.257829 43.534629-0.775314 50.629486-92.730514 0-36.483657-19.792457-45.758171-19.792457-45.758171s10.005943-54.403657 13.955657-96.124343c4.798171-52.106971-30.090971-186.499657-216.444343-186.499657-186.499657 0-221.505829 134.392686-216.532114 186.499657 4.037486 41.735314 14.145829 96.124343 14.145829 96.124343s-20.026514 9.142857-20.026514 45.758171c7.050971 92.028343 43.271314 52.472686 50.688 92.730514 18.051657 97.133714 59.026286 79.989029 59.026286 132.871314 0 88.254171-42.832457 129.579886-177.283657 178.614857C87.478857 810.525257 0 860.511086 0 894.624914L0 1009.371429l1024 0 0-114.746514C1024.131657 860.642743 936.579657 810.525257 801.967543 761.504914L801.967543 761.504914M801.967543 761.504914 801.967543 761.504914z" /></svg>